<svg width="204" height="234" viewBox="0 0 204 234" fill="none" xmlns="http://www.w3.org/2000/svg">
<path d="M103.467 0L166.865 121.736L103.467 156.057L39.2401 121.736L103.467 0Z" fill="#7AA5B3"/>
<path d="M103.467 0L204 97.8146V131.106L166.865 121.736L103.467 0Z" fill="#7AA5B3"/>
<path d="M103.467 0L39.2401 121.736L0 131.106V97.8146L103.467 0Z" fill="#528D9F"/>
<path d="M39.2401 121.736L103.467 156.057V234L0 131.106L39.2401 121.736Z" fill="#528D9F"/>
<path d="M166.865 121.736L204 131.106L103.467 234V156.057L166.865 121.736Z" fill="#7AA5B3"/>
<path d="M103.467 0L166.865 121.736L103.467 156.057L39.2401 121.736L103.467 0Z" fill="#CBE5ED"/>
<path d="M2 98.6761L96.0585 9.75597L37.8941 120.001L2 128.572V98.6761ZM3.95449 132.218L38.9666 123.858L101.467 157.256V229.19L3.95449 132.218ZM105.467 229.091V157.249L167.132 123.866L200.14 132.195L105.467 229.091ZM202 128.539L168.225 120.017L110.984 10.1043L202 98.6591V128.539ZM103.455 4.30786L164.182 120.914L103.461 153.786L41.9373 120.91L103.455 4.30786Z" stroke="black" stroke-width="4"/>
</svg>
