<svg width="213" height="234" viewBox="0 0 213 234" fill="none" xmlns="http://www.w3.org/2000/svg">
<path d="M109.115 47.085L179.541 97.8362L152.641 179.953H65.5887L37.4689 98.1956L109.115 47.085Z" fill="#F4A13F"/>
<path d="M37.4689 25.6503L109.115 0V47.085L37.4689 98.1956L2.43666 82.2355L37.4689 25.6503Z" fill="#C16C08"/>
<path d="M109.115 47.085L179.541 97.8362L213 82.2355L179.541 25.6503L109.115 0V47.085Z" fill="#DD7F11"/>
<path d="M0 154.021L37.4689 207.578L65.5887 179.953L37.4689 98.1956L2.43666 82.2355L0 154.021Z" fill="#C16C08"/>
<path d="M37.4689 207.578L109.115 234L179.541 207.578L152.641 179.953H65.5887L37.4689 207.578Z" fill="#C16C08"/>
<path d="M152.641 179.953L179.541 97.8362L213 82.2355V154.021L179.541 207.578L152.641 179.953Z" fill="#DD7F11"/>
<path d="M39.8457 98.9568L109.109 49.5459L177.185 98.6036L151.191 177.953H67.0158L39.8457 98.9568ZM154.918 179.425L181.172 99.2826L211 85.3747V153.447L179.196 204.356L154.918 179.425ZM151.797 181.953L175.973 206.78L109.109 231.866L41.1215 206.793L66.4067 181.953H151.797ZM63.2871 179.411L37.753 204.495L2.0215 153.421L4.33387 85.2976L35.8573 99.6592L63.2871 179.411ZM37.2474 95.8969L5.33274 81.3571L38.8013 27.2976L107.115 2.84034V46.055L37.2474 95.8969ZM111.115 46.061V2.85695L178.184 27.2846L210.156 81.3549L179.759 95.5279L111.115 46.061Z" stroke="black" stroke-width="4"/>
</svg>
