<svg width="207" height="234" viewBox="0 0 207 234" fill="none" xmlns="http://www.w3.org/2000/svg">
<path d="M103.457 190.484L29.4736 87.2104H171.221L103.457 190.484Z" fill="#EE6E6E"/>
<path d="M204.348 175.055L103.457 190.484L171.221 87.2104L204.348 175.055Z" fill="#B63A3A"/>
<path d="M207 64.7472L171.221 87.2104L102.835 0L154.917 32.3736L207 64.7472Z" fill="#B63A3A"/>
<path d="M207 64.7472L171.221 87.2104L102.835 0L154.917 32.3736L207 64.7472Z" fill="#921717"/>
<path d="M171.221 87.2104L207 64.7472L204.348 175.055L171.221 87.2104Z" fill="#B63A3A"/>
<path d="M171.221 87.2104L207 64.7472L204.348 175.055L171.221 87.2104Z" fill="#B63A3A"/>
<path d="M103.457 234V190.484L204.348 175.055L103.457 234Z" fill="#B63A3A"/>
<path d="M103.457 234V190.484L204.348 175.055L103.457 234Z" fill="#921717"/>
<path d="M103.457 234V190.484L1.7862 175.582L103.457 234Z" fill="#B63A3A"/>
<path d="M103.457 234V190.484L1.7862 175.582L103.457 234Z" fill="#921717"/>
<path d="M171.221 87.2104L207 64.7472L204.348 175.055L171.221 87.2104Z" fill="#B63A3A"/>
<path d="M171.221 87.2104L207 64.7472L204.348 175.055L171.221 87.2104Z" fill="#921717"/>
<path d="M0 56.349L29.4736 87.2104L1.7862 175.582L0 56.349Z" fill="#B63A3A"/>
<path d="M0 56.349L29.4736 87.2104L1.7862 175.582L0 56.349Z" fill="#800F0F"/>
<path d="M29.4736 87.2104L0 56.349L102.835 0L29.4736 87.2104Z" fill="#B63A3A"/>
<path d="M29.4736 87.2104L0 56.349L102.835 0L29.4736 87.2104Z" fill="#800F0F"/>
<path d="M1.7862 175.582L103.457 190.484L29.4736 87.2104L1.7862 175.582Z" fill="#B63A3A"/>
<path d="M102.835 0L171.221 87.2104H29.4736L102.835 0Z" fill="#B63A3A"/>
<path d="M103.457 190.484L29.4736 87.2104M103.457 190.484L171.221 87.2104M103.457 190.484L204.348 175.055M103.457 190.484V234M103.457 190.484L1.7862 175.582M29.4736 87.2104H171.221M29.4736 87.2104L0 56.349M29.4736 87.2104L1.7862 175.582M29.4736 87.2104L102.835 0M171.221 87.2104L204.348 175.055M171.221 87.2104L207 64.7472M171.221 87.2104L102.835 0M204.348 175.055L207 64.7472M204.348 175.055L103.457 234M207 64.7472L154.917 32.3736L102.835 0M102.835 0L0 56.349M103.457 234L1.7862 175.582M1.7862 175.582L0 56.349" stroke="black" stroke-width="4"/>
</svg>
